<svg width="251" height="234" viewBox="0 0 251 234" fill="none" xmlns="http://www.w3.org/2000/svg">
<path d="M40 117C40 74.4741 74.4741 40 117 40H134C176.526 40 211 74.4741 211 117V117C211 159.526 176.526 194 134 194H117C74.4741 194 40 159.526 40 117V117Z" fill="#E0E0E0"/>
<path d="M74.944 152V84.8H100.096C105.792 84.8 110.688 85.728 114.784 87.584C118.88 89.376 122.016 92 124.192 95.456C126.432 98.848 127.552 102.976 127.552 107.84C127.552 112.576 126.432 116.672 124.192 120.128C122.016 123.52 118.88 126.144 114.784 128C110.688 129.792 105.792 130.688 100.096 130.688H78.88L82.048 127.424V152H74.944ZM120.832 152L103.552 127.616H111.232L128.608 152H120.832ZM82.048 128L78.88 124.64H99.904C106.624 124.64 111.712 123.168 115.168 120.224C118.688 117.28 120.448 113.152 120.448 107.84C120.448 102.464 118.688 98.304 115.168 95.36C111.712 92.416 106.624 90.944 99.904 90.944H78.88L82.048 87.584V128Z" fill="black"/>
<path d="M74.944 152H73.944V153H74.944V152ZM74.944 84.8V83.8H73.944V84.8H74.944ZM114.784 87.584L114.371 88.4949L114.383 88.5002L114.784 87.584ZM124.192 95.456L123.346 95.9888L123.352 95.998L123.358 96.0071L124.192 95.456ZM124.192 120.128L123.353 119.584L123.35 119.588L124.192 120.128ZM114.784 128L115.185 128.916L115.197 128.911L114.784 128ZM78.88 130.688L78.1624 129.992L76.5158 131.688H78.88V130.688ZM82.048 127.424H83.048V124.958L81.3304 126.728L82.048 127.424ZM82.048 152V153H83.048V152H82.048ZM120.832 152L120.016 152.578L120.315 153H120.832V152ZM103.552 127.616V126.616H101.618L102.736 128.194L103.552 127.616ZM111.232 127.616L112.046 127.036L111.747 126.616H111.232V127.616ZM128.608 152V153H130.549L129.422 151.42L128.608 152ZM82.048 128L81.3204 128.686L83.048 130.518V128H82.048ZM78.88 124.64V123.64H76.5627L78.1524 125.326L78.88 124.64ZM115.168 120.224L114.526 119.457L114.52 119.463L115.168 120.224ZM115.168 95.36L114.52 96.1213L114.526 96.1271L115.168 95.36ZM78.88 90.944L78.1524 90.258L76.5627 91.944H78.88V90.944ZM82.048 87.584H83.048V85.0657L81.3204 86.898L82.048 87.584ZM75.944 152V84.8H73.944V152H75.944ZM74.944 85.8H100.096V83.8H74.944V85.8ZM100.096 85.8C105.686 85.8 110.435 86.7111 114.371 88.4949L115.197 86.6731C110.941 84.7449 105.898 83.8 100.096 83.8V85.8ZM114.383 88.5002C118.314 90.2198 121.287 92.7184 123.346 95.9888L125.038 94.9232C122.745 91.2816 119.446 88.5322 115.185 86.6678L114.383 88.5002ZM123.358 96.0071C125.47 99.2057 126.552 103.133 126.552 107.84H128.552C128.552 102.819 127.394 98.4903 125.026 94.9049L123.358 96.0071ZM126.552 107.84C126.552 112.413 125.473 116.313 123.353 119.584L125.031 120.672C127.391 117.031 128.552 112.739 128.552 107.84H126.552ZM123.35 119.588C121.29 122.799 118.313 125.303 114.371 127.089L115.197 128.911C119.447 126.985 122.742 124.241 125.034 120.668L123.35 119.588ZM114.383 127.084C110.443 128.808 105.69 129.688 100.096 129.688V131.688C105.894 131.688 110.933 130.776 115.185 128.916L114.383 127.084ZM100.096 129.688H78.88V131.688H100.096V129.688ZM79.5976 131.384L82.7656 128.12L81.3304 126.728L78.1624 129.992L79.5976 131.384ZM81.048 127.424V152H83.048V127.424H81.048ZM82.048 151H74.944V153H82.048V151ZM121.648 151.422L104.368 127.038L102.736 128.194L120.016 152.578L121.648 151.422ZM103.552 128.616H111.232V126.616H103.552V128.616ZM110.418 128.196L127.794 152.58L129.422 151.42L112.046 127.036L110.418 128.196ZM128.608 151H120.832V153H128.608V151ZM82.7756 127.314L79.6076 123.954L78.1524 125.326L81.3204 128.686L82.7756 127.314ZM78.88 125.64H99.904V123.64H78.88V125.64ZM99.904 125.64C106.751 125.64 112.11 124.143 115.816 120.985L114.52 119.463C111.314 122.193 106.497 123.64 99.904 123.64V125.64ZM115.81 120.991C119.594 117.826 121.448 113.396 121.448 107.84H119.448C119.448 112.908 117.782 116.734 114.526 119.457L115.81 120.991ZM121.448 107.84C121.448 102.224 119.597 97.7604 115.81 94.5929L114.526 96.1271C117.779 98.8476 119.448 102.704 119.448 107.84H121.448ZM115.816 94.5988C112.11 91.4415 106.751 89.944 99.904 89.944V91.944C106.497 91.944 111.314 93.3905 114.52 96.1212L115.816 94.5988ZM99.904 89.944H78.88V91.944H99.904V89.944ZM79.6076 91.63L82.7756 88.27L81.3204 86.898L78.1524 90.258L79.6076 91.63ZM81.048 87.584V128H83.048V87.584H81.048Z" fill="black"/>
<path d="M157.128 152.576C152.072 152.576 147.4 151.744 143.112 150.08C138.824 148.352 135.112 145.952 131.976 142.88C128.84 139.808 126.376 136.192 124.584 132.032C122.856 127.872 121.992 123.328 121.992 118.4C121.992 113.472 122.856 108.928 124.584 104.768C126.376 100.608 128.84 96.992 131.976 93.92C135.176 90.848 138.92 88.48 143.208 86.816C147.496 85.088 152.168 84.224 157.224 84.224C162.088 84.224 166.664 85.056 170.952 86.72C175.24 88.32 178.856 90.752 181.8 94.016L177.288 98.528C174.536 95.712 171.496 93.696 168.168 92.48C164.84 91.2 161.256 90.56 157.416 90.56C153.384 90.56 149.64 91.264 146.184 92.672C142.728 94.016 139.72 95.968 137.16 98.528C134.6 101.024 132.584 103.968 131.112 107.36C129.704 110.688 129 114.368 129 118.4C129 122.432 129.704 126.144 131.112 129.536C132.584 132.864 134.6 135.808 137.16 138.368C139.72 140.864 142.728 142.816 146.184 144.224C149.64 145.568 153.384 146.24 157.416 146.24C161.256 146.24 164.84 145.6 168.168 144.32C171.496 143.04 174.536 140.992 177.288 138.176L181.8 142.688C178.856 145.952 175.24 148.416 170.952 150.08C166.664 151.744 162.056 152.576 157.128 152.576Z" fill="black"/>
</svg>
